<svg version="1.1" id="Layer_1" xmlns="http://www.w3.org/2000/svg" xmlns:xlink="http://www.w3.org/1999/xlink" x="0px" y="0px"
	 width="100%" viewBox="0 0 307 355" enable-background="new 0 0 307 355" xml:space="preserve">
<path fill="#000000" opacity="1.000000" stroke="none" 
	d="
M166.000000,356.000000 
	C110.666664,356.000000 55.833332,356.000000 1.000000,356.000000 
	C1.000000,237.666672 1.000000,119.333336 1.000000,1.000000 
	C103.333336,1.000000 205.666672,1.000000 308.000000,1.000000 
	C308.000000,119.333336 308.000000,237.666672 308.000000,356.000000 
	C260.833344,356.000000 213.666672,356.000000 166.000000,356.000000 
M137.171417,34.492710 
	C135.354736,34.606411 133.508469,34.550510 131.726151,34.861294 
	C120.041840,36.898705 109.445297,41.808060 98.905312,47.033695 
	C83.232597,54.804085 71.542091,67.050720 61.429790,80.732597 
	C53.465290,91.508514 48.870567,104.093185 45.487885,117.128029 
	C40.952602,134.604263 41.640816,151.832962 46.643818,169.030991 
	C52.113926,187.834717 61.090508,205.013031 71.290329,221.581146 
	C77.097000,231.013245 82.963806,240.446869 89.447433,249.414261 
	C98.215233,261.540894 107.310829,273.459076 116.805832,285.023285 
	C125.955925,296.167389 135.868042,306.682648 145.299622,317.600098 
	C150.984314,324.180359 152.021240,324.408905 158.288239,318.031189 
	C162.640564,313.601959 166.885330,309.046295 170.904938,304.315033 
	C180.717178,292.765533 190.813477,281.417267 199.966705,269.358948 
	C209.615158,256.648163 218.153458,243.101196 227.444702,230.111206 
	C240.614914,211.698105 250.363251,191.652832 257.647217,169.639587 
	C259.086273,162.500885 261.403687,155.402023 261.729919,148.212830 
	C262.093231,140.206833 260.644562,132.118607 259.915283,123.225288 
	C259.883575,122.227654 260.033081,121.184059 259.793457,120.239136 
	C254.541382,99.526176 245.294281,80.952499 230.044281,65.722404 
	C221.426849,57.116196 211.879562,49.394802 200.660263,44.745213 
	C190.519104,40.542423 179.618042,38.173271 168.802078,34.344139 
	C168.354660,34.272755 167.907257,34.201366 167.495636,34.002296 
	C167.495636,34.002296 167.456253,34.131393 166.889725,33.385674 
	C157.672470,33.271706 148.455292,33.140530 139.237686,33.092728 
	C138.758759,33.090240 138.276123,33.798756 137.171417,34.492710 
z"/>
<path fill="#F90303" opacity="1.000000" stroke="none" 
	d="
M169.052063,34.995544 
	C179.618042,38.173271 190.519104,40.542423 200.660263,44.745213 
	C211.879562,49.394802 221.426849,57.116196 230.044281,65.722404 
	C245.294281,80.952499 254.541382,99.526176 259.793457,120.239136 
	C260.033081,121.184059 259.883575,122.227654 259.690033,123.922447 
	C259.345001,125.264374 259.043854,125.935196 259.132202,126.550056 
	C260.849213,138.502411 260.278625,150.365128 257.957520,162.188492 
	C257.450256,164.772354 257.310242,167.428299 257.001099,170.051056 
	C250.363251,191.652832 240.614914,211.698105 227.444702,230.111206 
	C218.153458,243.101196 209.615158,256.648163 199.966705,269.358948 
	C190.813477,281.417267 180.717178,292.765533 170.904938,304.315033 
	C166.885330,309.046295 162.640564,313.601959 158.288239,318.031189 
	C152.021240,324.408905 150.984314,324.180359 145.299622,317.600098 
	C135.868042,306.682648 125.955925,296.167389 116.805832,285.023285 
	C107.310829,273.459076 98.215233,261.540894 89.447433,249.414261 
	C82.963806,240.446869 77.097000,231.013245 71.290329,221.581146 
	C61.090508,205.013031 52.113926,187.834717 46.643818,169.030991 
	C41.640816,151.832962 40.952602,134.604263 45.487885,117.128029 
	C48.870567,104.093185 53.465290,91.508514 61.429790,80.732597 
	C71.542091,67.050720 83.232597,54.804085 98.905312,47.033695 
	C109.445297,41.808060 120.041840,36.898705 131.726151,34.861294 
	C133.508469,34.550510 135.354736,34.606411 137.972168,34.354042 
	C148.334045,34.187378 157.895142,34.159386 167.456253,34.131393 
	C167.456253,34.131393 167.495636,34.002296 167.671509,34.323120 
	C168.248947,34.761143 168.650497,34.878342 169.052063,34.995544 
M106.999199,201.000641 
	C106.999199,201.000641 106.987938,201.003586 107.196716,201.456940 
	C107.399887,201.739853 107.670158,201.924637 107.997864,202.003052 
	C107.997864,202.003052 107.990044,201.993637 108.083733,202.702835 
	C109.404716,203.458237 110.725700,204.213638 112.485619,205.068192 
	C112.485619,205.068192 112.915527,205.201096 113.090904,205.868164 
	C116.090034,207.250732 119.089165,208.633301 122.493492,210.092911 
	C122.493492,210.092911 122.889626,210.207748 123.210449,210.597519 
	C123.513283,210.731857 123.816116,210.866196 124.516319,211.092590 
	C124.516319,211.092590 124.894974,211.244247 125.154686,211.905609 
	C135.446274,216.479828 146.216644,217.763351 157.397659,217.064804 
	C172.204590,216.139725 185.640457,211.438416 197.410782,202.546463 
	C201.157028,199.716370 203.846268,195.487106 207.154083,191.462143 
	C207.333374,191.187820 207.586014,191.033676 208.638931,190.933472 
	C209.917419,190.204407 211.627380,189.785477 212.408463,188.698868 
	C221.409546,176.176895 226.413696,161.954529 227.812988,146.804504 
	C229.512558,128.403397 223.402145,111.768242 212.751724,97.014610 
	C209.550873,92.580574 204.297134,89.628517 200.003281,85.997551 
	C200.003281,85.997551 200.006073,86.017006 199.775177,85.571190 
	C199.503662,85.382751 199.232162,85.194305 199.005402,84.998383 
	C199.005402,84.998383 198.997726,85.043114 198.696060,84.519150 
	C198.139359,84.335533 197.582657,84.151917 197.000641,83.999840 
	C197.000641,83.999840 197.031036,83.972084 196.997543,83.326294 
	C196.338226,82.532722 195.678909,81.739151 194.678314,80.360512 
	C192.828171,78.975975 191.125534,77.309242 189.104050,76.252487 
	C175.477127,69.128906 161.142624,65.759277 145.583710,66.869560 
	C131.234543,67.893501 118.676674,73.234879 107.359573,81.391190 
	C94.101158,90.946617 85.083336,103.991814 80.074875,119.574707 
	C78.308899,125.069214 76.237556,130.887222 76.416107,136.490265 
	C76.714279,145.846603 78.324493,155.228165 80.216576,164.427551 
	C80.817619,167.349823 80.206520,172.005356 85.000145,173.001938 
	C85.000145,173.001938 85.003853,172.986816 84.982674,173.490555 
	C84.982002,173.658539 84.981331,173.826508 84.983833,174.757950 
	C87.663544,178.837860 90.343262,182.917770 92.996346,187.001938 
	C92.996346,187.001938 92.998863,186.974915 93.197868,187.436127 
	C93.467926,187.623581 93.737991,187.811035 93.999840,188.000320 
	C93.999840,188.000320 94.003395,187.992706 93.980927,188.721695 
	C95.667267,190.475754 97.353600,192.229828 98.998604,194.001297 
	C98.998604,194.001297 99.009933,193.957916 99.216545,194.430176 
	C99.492279,194.626266 99.768013,194.822357 100.477547,195.180756 
	C100.752045,195.360550 100.919777,195.611664 101.068390,196.648529 
	C102.377151,197.451797 103.685921,198.255081 105.454971,199.203842 
	C105.744331,199.390457 105.914803,199.653992 106.174004,200.455261 
	C106.448280,200.640854 106.722549,200.826431 106.999199,201.000641 
z"/>
<path fill="#D73633" opacity="1.000000" stroke="none" 
	d="
M257.324158,169.845322 
	C257.310242,167.428299 257.450256,164.772354 257.957520,162.188492 
	C260.278625,150.365128 260.849213,138.502411 259.132202,126.550056 
	C259.043854,125.935196 259.345001,125.264374 259.724701,124.342896 
	C260.644562,132.118607 262.093231,140.206833 261.729919,148.212830 
	C261.403687,155.402023 259.086273,162.500885 257.324158,169.845322 
z"/>
<path fill="#E36B6B" opacity="1.000000" stroke="none" 
	d="
M167.172989,33.758533 
	C157.895142,34.159386 148.334045,34.187378 138.284073,34.195812 
	C138.276123,33.798756 138.758759,33.090240 139.237686,33.092728 
	C148.455292,33.140530 157.672470,33.271706 167.172989,33.758533 
z"/>
<path fill="#E36B6B" opacity="1.000000" stroke="none" 
	d="
M168.927063,34.669842 
	C168.650497,34.878342 168.248947,34.761143 167.653610,34.386963 
	C167.907257,34.201366 168.354660,34.272755 168.927063,34.669842 
z"/>
<path fill="#000000" opacity="1.000000" stroke="none" 
	d="
M207.911987,190.999725 
	C207.586014,191.033676 207.333374,191.187820 206.732391,191.729156 
	C205.267288,192.759445 204.052094,193.368820 203.208237,194.310837 
	C197.555923,200.620575 190.815872,205.501221 182.928528,208.394882 
	C176.400253,210.789917 169.380005,211.847931 162.860565,214.262115 
	C152.788223,217.991943 143.193314,215.322342 133.470779,213.175858 
	C130.609497,212.544159 127.753433,211.888779 124.894974,211.244247 
	C124.894974,211.244247 124.516319,211.092590 124.213730,210.778961 
	C123.570633,210.379486 123.230125,210.293625 122.889626,210.207764 
	C122.889626,210.207748 122.493492,210.092911 122.153778,209.716827 
	C118.847885,207.960861 115.881706,206.580978 112.915527,205.201096 
	C112.915527,205.201096 112.485619,205.068192 112.132309,204.714142 
	C110.516006,203.571259 109.253029,202.782455 107.990044,201.993637 
	C107.990044,201.993637 107.997864,202.003052 107.934151,201.753159 
	C107.576271,201.336700 107.282104,201.170151 106.987938,201.003586 
	C106.987938,201.003586 106.999199,201.000641 106.925972,200.752563 
	C106.557289,200.334473 106.261841,200.164474 105.966385,199.994461 
	C105.914803,199.653992 105.744331,199.390457 105.116470,198.808289 
	C103.512222,197.586517 102.246475,196.760300 100.980736,195.934097 
	C100.919777,195.611664 100.752045,195.360550 100.185966,194.841949 
	C99.599571,194.321396 99.304749,194.139648 99.009933,193.957916 
	C99.009933,193.957916 98.998604,194.001297 99.000595,193.646133 
	C97.336189,191.524872 95.669792,189.758789 94.003395,187.992706 
	C94.003395,187.992706 93.999840,188.000320 93.938370,187.744766 
	C93.584221,187.317780 93.291542,187.146347 92.998863,186.974915 
	C92.998863,186.974915 92.996346,187.001938 92.980301,186.639221 
	C90.583008,182.183594 88.201775,178.090668 85.836578,173.741638 
	C85.569687,173.319290 85.286766,173.153061 85.003845,172.986816 
	C85.003853,172.986816 85.000145,173.001938 84.990456,172.611298 
	C84.853760,171.580276 84.828514,170.898071 84.584938,170.305634 
	C77.826523,153.868103 77.045235,137.154343 82.407547,120.215851 
	C88.209274,101.889305 99.849915,88.033760 116.261261,78.494598 
	C133.362747,68.554283 151.941452,66.083931 170.958450,71.629517 
	C179.271347,74.053658 186.981720,78.543907 195.077606,82.366592 
	C195.803345,83.082214 196.417191,83.527153 197.031036,83.972084 
	C197.031036,83.972084 197.000641,83.999840 197.122009,84.274887 
	C197.828156,84.714325 198.412933,84.878723 198.997726,85.043114 
	C198.997726,85.043114 199.005402,84.998383 199.059357,85.256348 
	C199.410904,85.681885 199.708481,85.849442 200.006073,86.017006 
	C200.006073,86.017006 200.003281,85.997551 200.109344,86.313286 
	C203.006790,89.479790 206.060440,92.120140 208.544998,95.217049 
	C220.527191,110.152382 226.159271,127.058395 225.196548,146.400482 
	C224.546692,159.456528 220.262299,170.995117 213.624359,181.925110 
	C211.769241,184.979752 209.818741,187.976456 207.911987,190.999725 
M151.001053,92.059380 
	C141.444733,92.040825 131.888229,91.988960 122.332367,92.046707 
	C121.164139,92.053772 119.999458,92.648712 118.098640,92.993729 
	C113.528625,94.207596 112.006966,97.510643 112.007912,101.865852 
	C112.011047,116.322319 112.000420,130.778793 112.014969,145.235245 
	C112.024261,154.463959 112.068695,163.692657 111.974739,173.840027 
	C111.991234,176.171844 111.984062,178.504135 112.028587,180.835419 
	C112.171356,188.310089 119.794357,194.042877 127.435501,192.842667 
	C128.857574,200.169220 129.064621,200.278900 135.637466,197.156326 
	C141.274109,200.110138 141.657806,199.868332 143.049561,193.011505 
	C145.731049,192.950851 148.412537,192.890182 152.009506,192.951279 
	C163.378296,192.968231 174.747269,193.018585 186.115631,192.957489 
	C187.453033,192.950317 188.787140,192.330307 190.729919,191.611877 
	C191.132996,190.038971 191.536072,188.466049 191.617538,186.146851 
	C191.730515,181.120422 191.843506,176.094009 192.014923,170.185623 
	C191.978973,168.416245 191.943024,166.646851 191.976242,163.958160 
	C191.983551,144.103104 192.012253,124.247993 191.954865,104.393127 
	C191.950577,102.910706 191.329895,101.430069 190.937286,99.231583 
	C189.877350,95.183937 187.238525,93.123962 182.515930,92.331650 
	C172.317917,92.280052 162.119919,92.228455 151.001053,92.059380 
z"/>
<path fill="#DA1314" opacity="1.000000" stroke="none" 
	d="
M194.965714,82.095909 
	C186.981720,78.543907 179.271347,74.053658 170.958450,71.629517 
	C151.941452,66.083931 133.362747,68.554283 116.261261,78.494598 
	C99.849915,88.033760 88.209274,101.889305 82.407547,120.215851 
	C77.045235,137.154343 77.826523,153.868103 84.584938,170.305634 
	C84.828514,170.898071 84.853760,171.580276 84.998894,172.609634 
	C80.206520,172.005356 80.817619,167.349823 80.216576,164.427551 
	C78.324493,155.228165 76.714279,145.846603 76.416107,136.490265 
	C76.237556,130.887222 78.308899,125.069214 80.074875,119.574707 
	C85.083336,103.991814 94.101158,90.946617 107.359573,81.391190 
	C118.676674,73.234879 131.234543,67.893501 145.583710,66.869560 
	C161.142624,65.759277 175.477127,69.128906 189.104050,76.252487 
	C191.125534,77.309242 192.828171,78.975975 194.834885,80.940903 
	C194.982880,81.712830 194.974304,81.904366 194.965714,82.095909 
z"/>
<path fill="#D6181A" opacity="1.000000" stroke="none" 
	d="
M208.275452,190.966599 
	C209.818741,187.976456 211.769241,184.979752 213.624359,181.925110 
	C220.262299,170.995117 224.546692,159.456528 225.196548,146.400482 
	C226.159271,127.058395 220.527191,110.152382 208.544998,95.217049 
	C206.060440,92.120140 203.006790,89.479790 200.099640,86.313278 
	C204.297134,89.628517 209.550873,92.580574 212.751724,97.014610 
	C223.402145,111.768242 229.512558,128.403397 227.812988,146.804504 
	C226.413696,161.954529 221.409546,176.176895 212.408463,188.698868 
	C211.627380,189.785477 209.917419,190.204407 208.275452,190.966599 
z"/>
<path fill="#D6181A" opacity="1.000000" stroke="none" 
	d="
M125.024826,211.574921 
	C127.753433,211.888779 130.609497,212.544159 133.470779,213.175858 
	C143.193314,215.322342 152.788223,217.991943 162.860565,214.262115 
	C169.380005,211.847931 176.400253,210.789917 182.928528,208.394882 
	C190.815872,205.501221 197.555923,200.620575 203.208237,194.310837 
	C204.052094,193.368820 205.267288,192.759445 206.664948,191.947128 
	C203.846268,195.487106 201.157028,199.716370 197.410782,202.546463 
	C185.640457,211.438416 172.204590,216.139725 157.397659,217.064804 
	C146.216644,217.763351 135.446274,216.479828 125.024826,211.574921 
z"/>
<path fill="#D6181A" opacity="1.000000" stroke="none" 
	d="
M85.820541,173.997757 
	C88.201775,178.090668 90.583008,182.183594 92.993614,186.637085 
	C90.343262,182.917770 87.663544,178.837860 85.192459,174.378006 
	C85.401085,173.998062 85.820541,173.997757 85.820541,173.997757 
z"/>
<path fill="#D6181A" opacity="1.000000" stroke="none" 
	d="
M113.003220,205.534637 
	C115.881706,206.580978 118.847885,207.960861 121.951187,209.678299 
	C119.089165,208.633301 116.090034,207.250732 113.003220,205.534637 
z"/>
<path fill="#D6181A" opacity="1.000000" stroke="none" 
	d="
M93.992157,188.357208 
	C95.669792,189.758789 97.336189,191.524872 99.021263,193.637421 
	C97.353600,192.229828 95.667267,190.475754 93.992157,188.357208 
z"/>
<path fill="#D6181A" opacity="1.000000" stroke="none" 
	d="
M108.036888,202.348236 
	C109.253029,202.782455 110.516006,203.571259 111.912842,204.664551 
	C110.725700,204.213638 109.404716,203.458237 108.036888,202.348236 
z"/>
<path fill="#D6181A" opacity="1.000000" stroke="none" 
	d="
M101.024567,196.291321 
	C102.246475,196.760300 103.512222,197.586517 104.886322,198.735535 
	C103.685921,198.255081 102.377151,197.451797 101.024567,196.291321 
z"/>
<path fill="#D6181A" opacity="1.000000" stroke="none" 
	d="
M195.077606,82.366592 
	C194.974304,81.904366 194.982880,81.712830 195.005524,81.233437 
	C195.678909,81.739151 196.338226,82.532722 197.014282,83.649185 
	C196.417191,83.527153 195.803345,83.082214 195.077606,82.366592 
z"/>
<path fill="#D6181A" opacity="1.000000" stroke="none" 
	d="
M198.846893,84.781128 
	C198.412933,84.878723 197.828156,84.714325 197.134659,84.259109 
	C197.582657,84.151917 198.139359,84.335533 198.846893,84.781128 
z"/>
<path fill="#D6181A" opacity="1.000000" stroke="none" 
	d="
M123.050034,210.402649 
	C123.230125,210.293625 123.570633,210.379486 124.015045,210.732941 
	C123.816116,210.866196 123.513283,210.731857 123.050034,210.402649 
z"/>
<path fill="#D6181A" opacity="1.000000" stroke="none" 
	d="
M107.092331,201.230255 
	C107.282104,201.170151 107.576271,201.336700 107.938980,201.757278 
	C107.670158,201.924637 107.399887,201.739853 107.092331,201.230255 
z"/>
<path fill="#D6181A" opacity="1.000000" stroke="none" 
	d="
M106.070190,200.224854 
	C106.261841,200.164474 106.557289,200.334473 106.924789,200.758255 
	C106.722549,200.826431 106.448280,200.640854 106.070190,200.224854 
z"/>
<path fill="#D6181A" opacity="1.000000" stroke="none" 
	d="
M99.113235,194.194046 
	C99.304749,194.139648 99.599571,194.321396 99.969070,194.760788 
	C99.768013,194.822357 99.492279,194.626266 99.113235,194.194046 
z"/>
<path fill="#D6181A" opacity="1.000000" stroke="none" 
	d="
M199.890625,85.794098 
	C199.708481,85.849442 199.410904,85.681885 199.036987,85.260086 
	C199.232162,85.194305 199.503662,85.382751 199.890625,85.794098 
z"/>
<path fill="#D6181A" opacity="1.000000" stroke="none" 
	d="
M93.098366,187.205521 
	C93.291542,187.146347 93.584221,187.317780 93.942474,187.743851 
	C93.737991,187.811035 93.467926,187.623581 93.098366,187.205521 
z"/>
<path fill="#DA1314" opacity="1.000000" stroke="none" 
	d="
M85.836578,173.741638 
	C85.820541,173.997757 85.401085,173.998062 85.190872,173.996277 
	C84.981331,173.826508 84.982002,173.658539 84.993256,173.238678 
	C85.286766,173.153061 85.569687,173.319290 85.836578,173.741638 
z"/>
<path fill="#487897" opacity="1.000000" stroke="none" 
	d="
M112.097374,172.921356 
	C112.068695,163.692657 112.024261,154.463959 112.014969,145.235245 
	C112.000420,130.778793 112.011047,116.322319 112.007912,101.865852 
	C112.006966,97.510643 113.528625,94.207596 118.946014,93.003006 
	C130.445175,92.989952 141.096954,92.967628 151.791931,93.400948 
	C151.882263,97.438293 151.929398,101.019997 151.566727,104.684814 
	C141.020264,104.198883 147.437347,113.103050 143.986755,117.047653 
	C142.760483,117.047653 141.112686,117.189217 139.497208,117.020905 
	C134.796616,116.531174 133.325134,118.925453 133.370026,123.225815 
	C133.429199,128.893967 134.168777,129.937057 139.959915,129.838440 
	C143.492233,129.778275 145.610367,130.290054 145.309830,134.635101 
	C144.954758,139.768326 145.522583,144.966492 145.147720,150.096878 
	C144.772141,155.237320 146.719284,157.572250 151.870071,157.691925 
	C151.856461,160.341461 151.812012,162.574127 151.323364,164.858551 
	C144.420364,164.938156 137.931793,165.367828 131.510330,164.891998 
	C123.515427,164.299606 116.790741,165.933655 112.097374,172.921356 
z"/>
<path fill="#2C495B" opacity="1.000000" stroke="none" 
	d="
M151.767563,164.806793 
	C151.812012,162.574127 151.856461,160.341461 151.917145,157.596313 
	C151.933395,157.083832 151.951523,156.871460 152.370331,156.937195 
	C156.731491,157.517166 158.200180,155.692764 158.091721,151.845276 
	C157.932220,146.187119 158.291138,140.507858 157.976974,134.862762 
	C157.753159,130.840683 159.197250,129.633820 163.091583,129.776596 
	C165.158981,129.852386 168.235260,129.271942 169.194214,127.859467 
	C172.541565,122.928947 169.131058,117.192772 163.222855,117.047562 
	C161.632660,117.008476 160.046326,116.812660 158.077011,116.659058 
	C158.077011,114.178291 157.957458,112.196609 158.101151,110.234207 
	C158.431091,105.727829 156.374008,104.109131 152.063873,104.889610 
	C152.050186,104.789619 151.976547,104.601692 151.976532,104.601692 
	C151.929398,101.019997 151.882263,97.438293 151.847946,93.405579 
	C151.860779,92.954559 151.970749,92.977989 152.442108,92.987350 
	C162.966843,92.992867 173.020233,92.989037 183.073624,92.985199 
	C187.238525,93.123962 189.877350,95.183937 190.952881,100.062057 
	C191.018753,122.226532 191.069031,143.560516 190.643860,164.921021 
	C177.473312,164.986008 164.778229,165.024490 152.003540,164.999786 
	C151.923965,164.936584 151.767563,164.806793 151.767563,164.806793 
z"/>
<path fill="#E3DBD8" opacity="1.000000" stroke="none" 
	d="
M191.956482,171.067581 
	C191.843506,176.094009 191.730515,181.120422 191.317383,186.581696 
	C177.996597,187.091553 164.975983,187.166580 152.002991,187.088745 
	C152.050644,186.935867 152.070724,186.616226 152.039642,186.175995 
	C152.023712,180.915253 152.038879,176.094742 152.048248,171.126190 
	C152.042480,170.978134 151.946182,170.697906 152.409912,170.793030 
	C165.901260,170.947983 178.928879,171.007782 191.956482,171.067581 
z"/>
<path fill="#354E5F" opacity="1.000000" stroke="none" 
	d="
M112.036057,173.380692 
	C116.790741,165.933655 123.515427,164.299606 131.510330,164.891998 
	C137.931793,165.367828 144.420364,164.938156 151.323364,164.858551 
	C151.767563,164.806793 151.923965,164.936584 151.963593,165.399124 
	C151.984222,167.473740 151.965210,169.085831 151.946182,170.697906 
	C151.946182,170.697906 152.042480,170.978134 151.587921,171.014709 
	C142.803818,171.027573 134.470810,170.846237 126.145905,171.030884 
	C119.678627,171.174362 115.957306,177.044571 118.635391,182.420929 
	C120.552460,186.269516 123.958855,187.142502 127.924530,187.380447 
	C127.689087,189.243759 127.394638,190.714096 127.100189,192.184433 
	C119.794357,194.042877 112.171356,188.310089 112.028587,180.835419 
	C111.984062,178.504135 111.991234,176.171844 112.036057,173.380692 
z"/>
<path fill="#182932" opacity="1.000000" stroke="none" 
	d="
M152.409912,170.793030 
	C151.965210,169.085831 151.984222,167.473740 152.043182,165.462311 
	C164.778229,165.024490 177.473312,164.986008 190.841370,164.940399 
	C191.514313,164.933289 191.907059,164.877472 191.907059,164.877472 
	C191.943024,166.646851 191.978973,168.416245 191.985703,170.626602 
	C178.928879,171.007782 165.901260,170.947983 152.409912,170.793030 
z"/>
<path fill="#182830" opacity="1.000000" stroke="none" 
	d="
M151.955353,187.241608 
	C164.975983,187.166580 177.996597,187.091553 191.478180,186.954834 
	C191.536072,188.466049 191.132996,190.038971 189.948837,191.779602 
	C176.786835,191.957794 164.405930,191.968262 151.998413,191.584351 
	C151.966324,189.873840 151.960831,188.557724 151.955353,187.241608 
z"/>
<path fill="#D65D61" opacity="1.000000" stroke="none" 
	d="
M127.267845,192.513550 
	C127.394638,190.714096 127.689087,189.243759 128.001968,186.950226 
	C128.387161,178.589279 128.387161,178.589279 134.994843,179.461914 
	C134.986771,185.565170 134.979675,191.200287 134.972580,196.835388 
	C129.064621,200.278900 128.857574,200.169220 127.267845,192.513550 
z"/>
<path fill="#CE2D5D" opacity="1.000000" stroke="none" 
	d="
M135.305023,196.995850 
	C134.979675,191.200287 134.986771,185.565170 135.417786,179.356354 
	C140.492798,177.977417 142.513550,179.877914 141.922806,184.598267 
	C141.825989,185.371918 142.107971,186.192978 142.135315,187.420593 
	C142.093079,189.579651 142.130402,191.310242 142.167709,193.040817 
	C141.657806,199.868332 141.274109,200.110138 135.305023,196.995850 
z"/>
<path fill="#8393A1" opacity="1.000000" stroke="none" 
	d="
M191.941650,164.417816 
	C191.907059,164.877472 191.514313,164.933289 191.316803,164.913910 
	C191.069031,143.560516 191.018753,122.226532 190.982117,100.420570 
	C191.329895,101.430069 191.950577,102.910706 191.954865,104.393127 
	C192.012253,124.247993 191.983551,144.103104 191.941650,164.417816 
z"/>
<path fill="#3D4B58" opacity="1.000000" stroke="none" 
	d="
M142.608643,193.026154 
	C142.130402,191.310242 142.093079,189.579651 142.570465,187.411682 
	C146.080353,186.854935 149.075546,186.735580 152.070724,186.616226 
	C152.070724,186.616226 152.050644,186.935867 152.002991,187.088745 
	C151.960831,188.557724 151.966324,189.873840 151.810928,191.689728 
	C151.401627,192.348022 151.216278,192.561371 151.094025,192.829514 
	C148.412537,192.890182 145.731049,192.950851 142.608643,193.026154 
z"/>
<path fill="#596267" opacity="1.000000" stroke="none" 
	d="
M151.551758,192.890396 
	C151.216278,192.561371 151.401627,192.348022 151.837524,192.084106 
	C164.405930,191.968262 176.786835,191.957794 189.645264,191.970856 
	C188.787140,192.330307 187.453033,192.950317 186.115631,192.957489 
	C174.747269,193.018585 163.378296,192.968231 151.551758,192.890396 
z"/>
<path fill="#678497" opacity="1.000000" stroke="none" 
	d="
M151.804764,92.949928 
	C141.096954,92.967628 130.445175,92.989952 119.313263,92.991745 
	C119.999458,92.648712 121.164139,92.053772 122.332367,92.046707 
	C131.888229,91.988960 141.444733,92.040825 151.472443,92.318466 
	C151.943848,92.577553 151.970749,92.977989 151.970749,92.977989 
	C151.970749,92.977989 151.860779,92.954559 151.804764,92.949928 
z"/>
<path fill="#495965" opacity="1.000000" stroke="none" 
	d="
M152.442108,92.987350 
	C151.970749,92.977989 151.943848,92.577553 151.932877,92.377205 
	C162.119919,92.228455 172.317917,92.280052 182.794769,92.658424 
	C173.020233,92.989037 162.966843,92.992867 152.442108,92.987350 
z"/>
<path fill="#EAD494" opacity="1.000000" stroke="none" 
	d="
M151.886322,157.179443 
	C146.719284,157.572250 144.772141,155.237320 145.147720,150.096878 
	C145.522583,144.966492 144.954758,139.768326 145.309830,134.635101 
	C145.610367,130.290054 143.492233,129.778275 139.959915,129.838440 
	C134.168777,129.937057 133.429199,128.893967 133.370026,123.225815 
	C133.325134,118.925453 134.796616,116.531174 139.497208,117.020905 
	C141.112686,117.189217 142.760483,117.047653 143.986755,117.047653 
	C147.437347,113.103050 141.020264,104.198883 151.566742,104.684814 
	C151.976547,104.601692 152.050186,104.789619 152.030380,105.357597 
	C151.990891,122.907539 151.971191,139.889496 151.951508,156.871460 
	C151.951523,156.871460 151.933395,157.083832 151.886322,157.179443 
z"/>
<path fill="#DDA866" opacity="1.000000" stroke="none" 
	d="
M152.370316,156.937195 
	C151.971191,139.889496 151.990891,122.907539 152.044067,105.457588 
	C156.374008,104.109131 158.431091,105.727829 158.101151,110.234207 
	C157.957458,112.196609 158.077011,114.178291 158.077011,116.659058 
	C160.046326,116.812660 161.632660,117.008476 163.222855,117.047562 
	C169.131058,117.192772 172.541565,122.928947 169.194214,127.859467 
	C168.235260,129.271942 165.158981,129.852386 163.091583,129.776596 
	C159.197250,129.633820 157.753159,130.840683 157.976974,134.862762 
	C158.291138,140.507858 157.932220,146.187119 158.091721,151.845276 
	C158.200180,155.692764 156.731491,157.517166 152.370316,156.937195 
z"/>
<path fill="#F7EFF1" opacity="1.000000" stroke="none" 
	d="
M152.039642,186.175995 
	C149.075546,186.735580 146.080353,186.854935 142.650024,186.983215 
	C142.107971,186.192978 141.825989,185.371918 141.922806,184.598267 
	C142.513550,179.877914 140.492798,177.977417 135.418747,178.888184 
	C128.387161,178.589279 128.387161,178.589279 127.942963,186.557251 
	C123.958855,187.142502 120.552460,186.269516 118.635391,182.420929 
	C115.957306,177.044571 119.678627,171.174362 126.145905,171.030884 
	C134.470810,170.846237 142.803818,171.027573 151.593689,171.162750 
	C152.038879,176.094742 152.023712,180.915253 152.039642,186.175995 
z"/>
</svg>