<?xml version="1.0" encoding="UTF-8" standalone="no"?>
<!DOCTYPE svg PUBLIC "-//W3C//DTD SVG 1.1//EN" "http://www.w3.org/Graphics/SVG/1.1/DTD/svg11.dtd">
<svg xmlns="http://www.w3.org/2000/svg" version="1.1" viewBox="0.00 0.00 561.00 444.00">
<path fill="#ffffff" d="
  M 280.91 96.41
  Q 296.56 103.24 305.52 115.63
  Q 312.36 125.09 308.85 137.99
  C 308.32 139.93 307.95 141.64 306.51 143.15
  A 1.14 1.14 0.0 0 1 304.98 143.27
  Q 303.56 142.16 302.58 140.71
  C 298.96 135.39 295.91 129.71 293.25 123.80
  C 287.28 110.52 274.92 101.20 261.39 94.41
  Q 260.54 93.99 260.07 93.17
  A 0.78 0.77 75.1 0 1 260.74 92.00
  Q 270.93 92.05 280.91 96.41
  Z"
/>
<path fill="#ffffff" d="
  M 350.50 176.83
  Q 345.52 165.25 341.61 155.31
  Q 336.54 142.42 333.50 136.96
  Q 323.65 119.28 307.40 105.80
  C 306.31 104.90 305.29 103.75 304.57 102.52
  A 0.42 0.42 0.0 0 1 304.92 101.90
  Q 307.69 101.85 309.83 102.89
  C 328.36 111.94 340.70 126.32 351.95 144.72
  C 359.07 156.38 362.29 167.84 361.21 181.55
  Q 360.82 186.49 359.16 191.11
  Q 358.78 192.17 358.10 191.28
  C 354.60 186.76 352.66 181.87 350.50 176.83
  Z"
/>
<path fill="#ffffff" d="
  M 403.36 276.06
  Q 402.45 278.97 400.62 280.92
  A 0.86 0.85 60.9 0 1 399.16 280.50
  Q 398.76 278.58 398.67 276.78
  Q 397.75 258.14 396.67 237.82
  Q 396.23 229.56 395.40 220.75
  C 392.39 188.84 378.41 158.84 357.59 134.65
  Q 352.15 128.33 346.28 121.88
  Q 345.13 120.61 346.61 119.75
  Q 346.88 119.59 348.01 120.18
  Q 350.33 121.39 352.43 123.10
  Q 393.99 157.02 408.41 210.34
  Q 412.96 227.15 411.41 243.99
  Q 410.85 250.06 408.67 258.04
  Q 406.23 266.95 403.36 276.06
  Z"
/>
<path fill="#ffffff" d="
  M 178.81 258.99
  Q 178.24 269.68 178.17 280.70
  Q 178.15 282.65 177.34 284.63
  Q 177.14 285.11 176.65 285.29
  Q 176.02 285.53 175.50 285.16
  Q 175.12 284.88 175.02 284.41
  Q 172.54 271.99 170.11 259.48
  A 1.44 1.44 0.0 0 0 168.80 258.32
  C 159.53 257.65 149.40 258.67 139.98 256.69
  Q 137.23 256.12 139.88 255.18
  C 148.74 252.06 158.14 251.06 167.33 249.35
  A 1.45 1.45 0.0 0 0 168.41 247.38
  C 167.89 246.11 168.03 244.91 167.96 243.57
  Q 167.15 226.45 167.93 219.95
  Q 171.67 188.88 194.92 170.69
  Q 202.01 165.15 212.62 160.60
  Q 232.06 152.27 255.86 153.01
  C 263.46 153.24 267.84 154.82 269.47 162.97
  C 276.10 196.22 265.40 230.45 234.46 246.88
  Q 221.49 253.76 208.39 255.94
  Q 196.42 257.93 179.36 258.45
  Q 178.84 258.47 178.81 258.99
  Z
  M 250.15 176.33
  Q 249.92 174.47 248.13 174.47
  C 237.48 174.43 225.49 176.40 215.93 180.81
  Q 187.09 194.09 181.16 227.08
  Q 179.40 236.90 179.81 246.78
  Q 179.83 247.25 180.30 247.21
  Q 185.38 246.86 190.16 245.66
  C 212.30 240.11 235.65 231.78 245.30 208.87
  Q 251.49 194.19 250.31 177.85
  Q 250.25 177.09 250.15 176.33
  Z"
/>
<path fill="#ffffff" d="
  M 308.67 306.27
  L 306.81 317.03
  A 0.54 0.54 0.0 0 1 305.93 317.35
  C 303.40 315.23 302.65 311.04 301.89 307.97
  A 2.89 2.88 87.8 0 0 299.56 305.80
  L 287.26 303.73
  Q 286.43 303.59 286.96 302.93
  C 289.01 300.45 294.01 299.58 297.01 298.98
  Q 299.35 298.52 299.27 296.05
  Q 298.99 287.54 300.06 279.92
  C 303.01 259.05 322.24 248.07 341.74 247.05
  Q 346.74 246.79 350.70 247.80
  Q 355.03 248.90 356.07 253.45
  Q 359.63 269.22 353.69 282.80
  C 347.89 296.07 333.83 304.41 319.66 305.55
  C 316.28 305.83 312.80 305.71 309.41 305.66
  Q 308.78 305.65 308.67 306.27
  Z
  M 335.68 265.07
  C 319.42 267.16 310.43 278.83 309.96 294.68
  A 0.87 0.87 0.0 0 0 310.99 295.56
  C 326.50 292.72 341.26 283.08 339.77 265.14
  A 0.53 0.53 0.0 0 0 339.19 264.66
  Q 337.45 264.84 335.68 265.07
  Z"
/>
<path fill="#ffffff" d="
  M 214.91 331.23
  L 212.60 345.96
  Q 212.32 347.74 211.39 346.20
  C 208.39 341.26 208.62 336.16 207.07 330.89
  A 2.32 2.31 -5.9 0 0 205.04 329.24
  C 198.80 328.76 192.83 329.71 186.83 327.27
  A 0.37 0.37 0.0 0 1 186.79 326.61
  Q 191.29 323.99 197.47 323.22
  Q 200.93 322.80 204.44 321.35
  Q 204.99 321.13 205.00 320.53
  C 205.06 317.15 204.61 313.81 204.69 310.34
  Q 204.81 305.67 205.17 301.03
  C 206.46 284.70 215.59 271.97 229.83 264.07
  Q 245.25 255.52 264.53 256.07
  C 271.03 256.25 275.12 258.85 276.26 265.52
  C 281.91 298.49 263.72 324.70 230.74 328.98
  Q 223.30 329.94 215.52 330.66
  Q 214.99 330.71 214.91 331.23
  Z
  M 252.94 275.40
  Q 242.80 276.93 233.49 282.20
  C 220.20 289.74 216.23 304.11 215.47 319.06
  A 0.47 0.47 0.0 0 0 216.04 319.54
  C 224.73 317.57 233.74 315.20 241.07 310.61
  Q 257.72 300.18 258.47 281.13
  Q 258.59 278.10 257.22 274.61
  Q 257.04 274.15 256.58 274.36
  Q 255.02 275.08 252.94 275.40
  Z"
/>
</svg>
